<?xml version="1.0" standalone="no"?>
<!DOCTYPE svg PUBLIC "-//W3C//DTD SVG 20010904//EN"
 "http://www.w3.org/TR/2001/REC-SVG-20010904/DTD/svg10.dtd">
<svg version="1.0" xmlns="http://www.w3.org/2000/svg"
 width="1200.000000pt" height="1200.000000pt" viewBox="0 0 1200.000000 1200.000000"
 preserveAspectRatio="xMidYMid meet">
<metadata>
Created by potrace 1.11, written by Peter Selinger 2001-2013
</metadata>
<g transform="translate(0.000000,1200.000000) scale(0.100000,-0.100000)"
fill="#000000" stroke="none">
<path d="M2789 7610 c-496 -63 -793 -448 -748 -970 17 -191 84 -389 201 -590
87 -150 144 -230 393 -545 289 -366 301 -382 381 -505 85 -132 158 -283 185
-386 29 -111 29 -265 1 -355 -70 -215 -278 -328 -553 -299 -123 12 -190 34
-349 115 -69 35 -128 61 -132 57 -9 -9 -208 -392 -211 -405 -4 -17 216 -126
327 -162 171 -56 250 -69 436 -69 100 -1 189 4 225 12 313 68 522 216 654 464
79 147 112 296 112 502 -1 205 -40 365 -137 559 -78 154 -117 209 -690 967
-181 240 -271 380 -316 498 -79 203 -53 413 67 541 90 96 211 137 380 129 112
-6 186 -27 307 -88 l76 -39 101 198 101 198 -108 51 c-120 56 -202 84 -324
107 -100 19 -289 27 -379 15z"/>
<path d="M5680 5555 c0 -1852 2 -2065 15 -2065 49 0 227 24 333 46 679 135
1158 560 1377 1218 82 247 115 473 115 796 0 332 -32 555 -117 810 -128 387
-340 683 -649 906 -174 126 -470 254 -699 303 -70 16 -327 51 -367 51 -5 0 -8
-929 -8 -2065z m608 1459 c179 -85 321 -201 441 -363 122 -165 229 -426 270
-662 43 -239 45 -601 5 -844 -48 -294 -173 -576 -344 -774 -121 -141 -321
-275 -487 -325 l-23 -7 0 1516 0 1516 23 -6 c12 -4 64 -26 115 -51z"/>
<path d="M8180 5555 c0 -1973 1 -2065 18 -2065 10 0 74 7 142 15 783 97 1326
530 1565 1249 82 247 115 473 115 796 0 332 -32 555 -117 810 -128 387 -340
683 -649 906 -174 126 -470 254 -699 303 -70 16 -327 51 -367 51 -5 0 -8 -929
-8 -2065z m608 1459 c312 -148 528 -409 651 -787 52 -158 78 -311 90 -512 32
-563 -94 -1025 -369 -1344 -121 -141 -321 -275 -487 -325 l-23 -7 0 1516 0
1516 23 -6 c12 -4 64 -26 115 -51z"/>
<path d="M4350 5555 l0 -2015 235 0 235 0 0 2015 0 2015 -235 0 -235 0 0
-2015z"/>
</g>
</svg>
